<svg xmlns="http://www.w3.org/2000/svg" style="display:none">
  <symbol id="spark" viewBox="0 0 24 24" fill="none" stroke="currentColor" stroke-width="1.8" stroke-linecap="round" stroke-linejoin="round">
    <path d="M13 2 4 14h6l-1 8 9-12h-6l1-8Z"/>
  </symbol>
  <symbol id="check" viewBox="0 0 24 24" fill="none" stroke="currentColor" stroke-width="2" stroke-linecap="round" stroke-linejoin="round">
    <path d="M20 6 9 17l-5-5"/>
  </symbol>
  <symbol id="ic-inv" viewBox="0 0 24 24" fill="none" stroke="currentColor" stroke-width="1.8" stroke-linecap="round" stroke-linejoin="round">
    <path d="M3 3v18h18"/><path d="M7 15l4-4 3 3 5-6"/>
  </symbol>
  <symbol id="ic-charger" viewBox="0 0 24 24" fill="none" stroke="currentColor" stroke-width="1.8" stroke-linecap="round" stroke-linejoin="round">
    <rect x="6" y="3" width="9" height="18" rx="2"/><path d="M15 9h2a2 2 0 0 1 2 2v4a1.5 1.5 0 0 0 3 0V8l-2-2"/><path d="M9 7h3"/>
  </symbol>
  <symbol id="ic-car" viewBox="0 0 24 24" fill="none" stroke="currentColor" stroke-width="1.8" stroke-linecap="round" stroke-linejoin="round">
    <path d="M5 13l2-5h10l2 5"/><path d="M3 13h18v4H3z"/><circle cx="7.5" cy="17.5" r="1.5"/><circle cx="16.5" cy="17.5" r="1.5"/>
  </symbol>
</svg>
