<?xml version="1.0" encoding="UTF-8"?>
<!-- Generator: visioncortex VTracer 0.6.12 -->
<svg version="1.1" xmlns="http://www.w3.org/2000/svg" width="672" height="263">
<path d="M0 0 C2.662 -0.286 5.091 -0.378 7.754 -0.341 C8.554 -0.341 9.355 -0.341 10.179 -0.342 C12.83 -0.34 15.481 -0.316 18.133 -0.293 C19.968 -0.287 21.804 -0.283 23.64 -0.28 C28.476 -0.269 33.313 -0.239 38.149 -0.206 C43.083 -0.175 48.016 -0.162 52.949 -0.146 C62.633 -0.114 72.316 -0.063 82 0 C86.259 8.819 86.259 8.819 85.315 13.125 C85.038 13.564 85.038 13.564 83.637 15.785 C83.025 16.797 82.413 17.808 81.782 18.85 C81.437 19.38 81.437 19.38 79.688 22.062 C78.979 23.207 78.275 24.353 77.573 25.501 C76.121 27.868 74.651 30.221 73.164 32.566 C70.542 36.707 68.038 40.916 65.533 45.128 C63.724 48.169 61.899 51.201 60.07 54.23 C55.659 61.554 51.288 68.901 46.922 76.253 C46.061 77.703 45.199 79.154 44.337 80.604 C43.133 82.63 41.93 84.657 40.727 86.684 C40.364 87.294 40.001 87.904 39.627 88.533 C38.363 90.666 37.109 92.781 36 95 C46.23 95 56.46 95 67 95 C70 105 70 105 67.758 109.211 C66.579 110.626 65.365 112.013 64.125 113.375 C62.806 114.938 61.49 116.503 60.176 118.07 C59.486 118.875 58.796 119.68 58.084 120.509 C54.645 124.62 51.492 128.937 48.312 133.25 C43.154 140.171 37.905 147.006 32.547 153.773 C28.723 158.605 24.982 163.501 21.234 168.391 C19.159 171.096 17.079 173.798 15 176.5 C12.428 179.842 9.857 183.186 7.289 186.531 C6.843 187.112 6.397 187.693 5.938 188.291 C4.7 189.902 3.463 191.514 2.227 193.125 C0.177 195.772 -1.901 198.393 -4 201 C-1.943 203.057 2.245 202.24 5.062 202.25 C29.581 202.194 50.461 193.237 68 176 C68.626 175.386 69.253 174.773 69.898 174.141 C84.008 159.201 90.406 138.398 90.312 118.25 C90.311 117.101 90.31 115.951 90.309 114.767 C90.227 107.587 89.708 101.127 87.656 94.223 C87 92 87 92 87 89 C85.804 89.082 84.607 89.165 83.375 89.25 C78.868 89.242 76.487 87.932 73 85 C71.614 83.377 70.274 81.713 69 80 C66.813 77.448 65.326 76.573 62 76 C62 74.68 62 73.36 62 72 C64 70.25 64 70.25 66 69 C65.691 68.319 65.381 67.639 65.062 66.938 C63.866 63.63 63.41 60.485 63 57 C64.65 57 66.3 57 68 57 C69.32 59.31 70.64 61.62 72 64 C75.912 62.844 78.875 61.645 82 59 C81.319 57.928 80.639 56.855 79.938 55.75 C77.965 52.338 77.965 52.338 78.25 49.562 C78.374 49.305 78.374 49.305 79 48 C80.32 48 81.64 48 83 48 C84.484 49.531 84.484 49.531 85.75 51.5 C86.178 52.15 86.606 52.799 87.047 53.469 C87.361 53.974 87.676 54.479 88 55 C88.371 54.825 88.371 54.825 90.25 53.938 C93.132 52.955 94.212 52.967 97 54 C96.876 54.495 96.876 54.495 96.25 57 C95.752 60.31 96.286 61.99 97.938 64.875 C100.369 69.199 100.79 73.112 100 78 C99.657 78.666 99.314 79.333 98.961 80.02 C97.386 83.265 98.215 86.602 99 90 C99.322 90.794 99.645 91.588 99.977 92.406 C107.955 112.626 103.143 138.873 94.841 158.159 C84.607 180.558 66.081 197.852 43.668 207.652 C29.894 212.713 14.12 216.835 -0.57 214.262 C-11.812 212.45 -11.812 212.45 -15.734 215.229 C-19.289 218.902 -21.849 223.238 -24.476 227.596 C-27.138 231.795 -30.276 235.618 -33.375 239.5 C-34.51 240.946 -35.643 242.394 -36.773 243.844 C-37.039 244.185 -37.039 244.185 -38.386 245.91 C-40.962 249.245 -43.485 252.619 -46 256 C-50.4 254.188 -52.022 251.671 -54.171 247.537 C-55.645 243.025 -54.215 239.567 -52.609 235.258 C-52.311 234.368 -52.013 233.477 -51.706 232.56 C-50.754 229.736 -49.755 226.931 -48.75 224.125 C-47.769 221.295 -46.799 218.462 -45.836 215.625 C-45.236 213.866 -44.623 212.111 -43.997 210.36 C-43.721 209.569 -43.444 208.777 -43.159 207.961 C-42.911 207.267 -42.663 206.572 -42.407 205.857 C-42 204 -42 204 -43 201 C-44.977 199.703 -44.977 199.703 -47.625 198.25 C-58.925 191.302 -69.407 180.5 -76 169 C-76.32 168.443 -76.64 167.886 -76.97 167.312 C-89.938 144.313 -93.928 117.646 -87 92 C-79.368 66.517 -63.575 45.914 -40.157 33.087 C-30.644 28.034 -30.644 28.034 -26 27 C-25.329 28.456 -24.663 29.915 -24 31.375 C-23.629 32.187 -23.257 32.999 -22.875 33.836 C-22 36 -22 36 -22 38 C-23.027 38.485 -24.055 38.969 -25.113 39.469 C-34.24 43.854 -43.539 48.334 -50.668 55.73 C-52 57 -52 57 -54 57 C-54.267 57.594 -54.534 58.189 -54.809 58.801 C-56.021 61.039 -57.267 62.401 -59.062 64.188 C-72.91 79.715 -78.865 102.027 -77.875 122.438 C-76.242 145.735 -66.146 165.084 -49.785 181.613 C-46.09 184.78 -42.092 187.377 -38 190 C-32.085 172.738 -26.654 155.341 -21.306 137.897 C-21.167 137.446 -21.167 137.446 -20.466 135.162 C-19.939 133.448 -19.414 131.733 -18.891 130.017 C-17.112 124.224 -17.112 124.224 -16 122 C-17.302 122.153 -18.604 122.307 -19.945 122.465 C-21.672 122.624 -23.398 122.782 -25.125 122.938 C-25.981 123.044 -26.837 123.15 -27.719 123.26 C-31.288 123.548 -33.897 123.627 -37.062 121.829 C-39.045 119.965 -40.053 118.554 -41 116 C-40.919 112.061 -39.392 108.65 -38 105 C-37.476 103.498 -36.956 101.995 -36.441 100.49 C-34.508 94.872 -32.504 89.28 -30.5 83.688 C-28.976 79.417 -27.455 75.146 -25.934 70.875 C-25.538 69.764 -25.142 68.654 -24.734 67.51 C-21.925 59.625 -19.146 51.731 -16.384 43.83 C-15.295 40.714 -14.204 37.598 -13.113 34.482 C-11.841 30.844 -10.569 27.206 -9.302 23.567 C-8.123 20.183 -6.939 16.8 -5.754 13.418 C-5.403 12.405 -5.051 11.391 -4.689 10.347 C-4.363 9.419 -4.037 8.492 -3.701 7.536 C-3.42 6.728 -3.138 5.92 -2.847 5.088 C-2 3 -2 3 0 0 Z " fill="#ffffff" transform="translate(112,7)"/>
<path d="M0 0 C24.42 0 48.84 0 74 0 C72.686 3.284 71.631 5.818 69.848 8.738 C69.411 9.459 68.974 10.18 68.524 10.922 C68.042 11.711 67.56 12.5 67.062 13.312 C65.974 15.109 64.887 16.906 63.801 18.703 C63.198 19.699 62.596 20.695 61.975 21.721 C58.203 27.983 54.479 34.274 50.75 40.562 C49.934 41.937 49.118 43.312 48.302 44.687 C44.343 51.359 40.388 58.032 36.434 64.707 C36.072 65.318 35.709 65.929 35.336 66.559 C33.641 69.421 31.946 72.284 30.251 75.147 C29.949 75.657 29.949 75.657 28.418 78.242 C27.9 79.117 27.382 79.992 26.848 80.894 C24.244 85.27 21.62 89.634 19 94 C25.27 94.165 25.27 94.165 57 95 C55.083 98.834 52.841 101.932 50.188 105.25 C49.705 105.858 49.223 106.467 48.727 107.094 C44.476 112.442 40.161 117.738 35.843 123.032 C30.476 129.621 25.229 136.301 20 143 C14.278 150.33 8.514 157.616 2.625 164.812 C-1.842 170.273 -6.181 175.812 -10.438 181.438 C-15.431 188.032 -20.604 194.45 -25.89 200.812 C-30.136 205.927 -34.283 211.11 -38.362 216.36 C-41.17 219.971 -44.056 223.5 -47 227 C-48.323 223.03 -47.369 221.342 -46.062 217.375 C-45.596 215.944 -45.13 214.513 -44.664 213.082 C-44.401 212.285 -44.139 211.488 -43.868 210.667 C-42.897 207.684 -41.959 204.693 -41.023 201.699 C-40.328 199.487 -39.633 197.275 -38.938 195.062 C-38.61 194.009 -38.282 192.956 -37.944 191.871 C-36.489 187.285 -35.001 182.848 -32.941 178.496 C-30.951 174.194 -29.872 169.858 -28.791 165.253 C-27.341 159.291 -25.523 153.435 -23.75 147.562 C-23.653 147.239 -23.653 147.239 -23.16 145.601 C-13.868 114.736 -13.868 114.736 -11 109 C-19.91 109 -28.82 109 -38 109 C-37.217 105.868 -36.321 103.067 -35.188 100.062 C-33.632 95.847 -32.238 91.613 -30.938 87.312 C-29.228 81.671 -27.325 76.193 -25.066 70.75 C-22.728 65.073 -20.828 59.368 -19.125 53.469 C-18.214 50.661 -17.21 47.987 -16.098 45.258 C-13.975 40.034 -12.181 34.735 -10.438 29.375 C-8.417 23.193 -6.311 17.079 -4 11 C-3.34 9.185 -3.34 9.185 0 0 Z " fill="#75FEB5" transform="translate(114,10)"/>
<path d="M0 0 C24.42 0 48.84 0 74 0 C72.686 3.284 71.631 5.818 69.848 8.738 C69.411 9.459 68.974 10.18 68.524 10.922 C68.042 11.711 67.56 12.5 67.062 13.312 C65.974 15.109 64.887 16.906 63.801 18.703 C63.198 19.699 62.596 20.695 61.975 21.721 C58.203 27.983 54.479 34.274 50.75 40.562 C49.934 41.937 49.118 43.312 48.302 44.687 C44.343 51.359 40.388 58.032 36.434 64.707 C36.072 65.318 35.709 65.929 35.336 66.559 C33.641 69.421 31.946 72.284 30.251 75.147 C29.949 75.657 29.949 75.657 28.418 78.242 C27.9 79.117 27.382 79.992 26.848 80.894 C24.244 85.27 21.62 89.634 19 94 C25.27 94.165 25.27 94.165 57 95 C55.083 98.834 52.841 101.932 50.188 105.25 C49.705 105.858 49.223 106.467 48.727 107.094 C44.476 112.442 40.161 117.738 35.843 123.032 C30.476 129.621 25.229 136.301 20 143 C14.278 150.33 8.514 157.616 2.625 164.812 C-1.842 170.273 -6.181 175.812 -10.438 181.438 C-15.431 188.032 -20.604 194.45 -25.89 200.812 C-30.136 205.927 -34.283 211.11 -38.362 216.36 C-41.17 219.971 -44.056 223.5 -47 227 C-48.255 223.234 -47.371 221.628 -46 218 C-45.01 218 -44.02 218 -43 218 C-41.301 216 -41.301 216 -39.312 213 C-38.924 212.42 -38.535 211.84 -38.134 211.243 C-36.746 209.168 -35.373 207.084 -34 205 C-32.958 203.434 -31.915 201.869 -30.871 200.305 C-29.006 197.509 -27.142 194.712 -25.281 191.914 C-16.77 179.118 -8.158 166.39 0.444 153.656 C7.577 143.094 14.676 132.51 21.735 121.899 C24.274 118.087 26.827 114.284 29.379 110.48 C30.982 108.027 32.492 105.513 34 103 C21.46 103 8.92 103 -4 103 C1.62 91.759 1.62 91.759 3.91 88.133 C4.418 87.321 4.927 86.51 5.45 85.674 C5.716 85.253 5.716 85.253 7.062 83.125 C8.226 81.265 9.389 79.404 10.551 77.543 C11.132 76.613 11.713 75.683 12.311 74.724 C14.834 70.654 17.296 66.549 19.75 62.438 C24.692 54.164 29.682 45.922 34.688 37.688 C50.077 12.366 50.077 12.366 56 2 C37.52 1.67 19.04 1.34 0 1 C0 0.67 0 0.34 0 0 Z " fill="#7FDE85" transform="translate(114,10)"/>
<path d="M0 0 C4.206 1.502 5.739 4.286 8 8 C8.743 7.649 9.485 7.299 10.25 6.938 C13.132 5.955 14.212 5.967 17 7 C16.876 7.495 16.876 7.495 16.25 10 C15.752 13.31 16.286 14.99 17.938 17.875 C20.369 22.199 20.79 26.112 20 31 C19.657 31.666 19.314 32.333 18.961 33.02 C17.386 36.265 18.215 39.602 19 43 C19.322 43.794 19.645 44.588 19.977 45.406 C27.955 65.626 23.143 91.873 14.841 111.159 C4.607 133.558 -13.919 150.852 -36.332 160.652 C-55.643 167.747 -73.783 168.831 -94 166 C-93.59 165.457 -93.18 164.915 -92.758 164.355 C-92.219 163.64 -91.68 162.925 -91.125 162.188 C-90.858 161.834 -90.858 161.834 -89.508 160.043 C-88.292 158.395 -87.136 156.704 -86 155 C-84.099 154.707 -84.099 154.707 -81.773 154.812 C-80.915 154.838 -80.056 154.864 -79.171 154.89 C-78.248 154.927 -77.326 154.963 -76.375 155 C-52.539 155.407 -31.743 147.657 -14.273 131.234 C-13.523 130.497 -12.773 129.76 -12 129 C-11.374 128.386 -10.747 127.773 -10.102 127.141 C4.008 112.201 10.406 91.398 10.312 71.25 C10.311 70.101 10.31 68.951 10.309 67.767 C10.227 60.587 9.708 54.127 7.656 47.223 C7 45 7 45 7 42 C5.804 42.083 4.608 42.165 3.375 42.25 C-1.132 42.242 -3.513 40.932 -7 38 C-8.386 36.377 -9.726 34.713 -11 33 C-13.187 30.448 -14.674 29.573 -18 29 C-18 27.68 -18 26.36 -18 25 C-16 23.25 -16 23.25 -14 22 C-14.309 21.319 -14.619 20.639 -14.938 19.938 C-16.134 16.63 -16.59 13.485 -17 10 C-15.35 10 -13.7 10 -12 10 C-10.68 12.31 -9.36 14.62 -8 17 C-4.088 15.844 -1.125 14.645 2 12 C1.319 10.927 0.639 9.855 -0.062 8.75 C-2.026 5.334 -2.026 5.334 -1.812 2.625 C-1 1 -1 1 0 0 Z " fill="#ffffff" transform="translate(192,54)"/>
<path d="M0 0 C2.662 -0.286 5.091 -0.378 7.754 -0.341 C8.554 -0.341 9.355 -0.341 10.179 -0.342 C12.83 -0.34 15.481 -0.316 18.133 -0.293 C19.968 -0.287 21.804 -0.283 23.64 -0.28 C28.476 -0.269 33.313 -0.239 38.149 -0.206 C43.083 -0.175 48.016 -0.162 52.949 -0.146 C62.633 -0.114 72.316 -0.063 82 0 C86.259 8.819 86.259 8.819 85.315 13.125 C85.038 13.564 85.038 13.564 83.637 15.785 C83.025 16.797 82.413 17.808 81.782 18.85 C81.091 19.91 80.4 20.97 79.688 22.062 C78.979 23.207 78.275 24.353 77.573 25.501 C76.121 27.868 74.651 30.221 73.164 32.566 C70.542 36.707 68.038 40.916 65.533 45.128 C63.724 48.169 61.899 51.201 60.07 54.23 C55.659 61.554 51.288 68.901 46.922 76.253 C46.061 77.703 45.199 79.154 44.337 80.604 C43.133 82.63 41.93 84.657 40.727 86.684 C40.364 87.294 40.001 87.904 39.627 88.533 C38.363 90.666 37.109 92.781 36 95 C46.23 95 56.46 95 67 95 C66.67 95.66 66.34 96.32 66 97 C55.11 96.67 44.22 96.34 33 96 C37.455 96.165 37.455 96.165 60 97 C59.67 97.66 59.34 98.32 59 99 C52.565 98.835 52.565 98.835 20 98 C22.34 93.32 24.565 88.891 27.223 84.438 C27.834 83.409 28.446 82.381 29.076 81.321 C29.731 80.225 30.387 79.129 31.062 78 C31.761 76.828 32.459 75.656 33.156 74.483 C34.648 71.978 36.14 69.474 37.634 66.971 C40.082 62.864 42.522 58.753 44.961 54.641 C45.798 53.229 46.635 51.818 47.472 50.406 C47.883 49.714 48.294 49.022 48.717 48.309 C53.654 39.985 58.595 31.663 63.566 23.359 C64.227 22.256 64.888 21.152 65.569 20.015 C69.015 14.324 72.513 8.666 76 3 C51.58 3 27.16 3 2 3 C1.01 6.63 0.02 10.26 -1 14 C-2.141 17.575 -3.299 21.134 -4.5 24.688 C-4.795 25.572 -5.09 26.457 -5.395 27.369 C-7.676 34.168 -10.088 40.89 -12.875 47.5 C-14.678 51.953 -16.108 56.47 -17.5 61.062 C-19.065 66.219 -20.812 71.145 -23.105 76.023 C-25.256 80.775 -26.644 85.827 -28.156 90.809 C-28.367 91.498 -28.578 92.186 -28.795 92.896 C-29.21 94.255 -29.62 95.615 -30.023 96.977 C-31.641 102.284 -33.7 106.824 -36 112 C-27.09 112 -18.18 112 -9 112 C-12.359 123.197 -12.359 123.197 -13.867 128.066 C-20.225 148.636 -20.225 148.636 -22.812 157.375 C-23.011 158.044 -23.209 158.714 -23.413 159.403 C-24.877 164.421 -26.117 169.475 -27.227 174.582 C-28.068 177.213 -29.229 178.901 -31 181 C-31.33 180.34 -31.66 179.68 -32 179 C-32.33 179.66 -32.33 179.66 -34 183 C-35.406 180.187 -34.546 178.967 -33.585 176.003 C-33.251 174.961 -32.917 173.92 -32.573 172.847 C-32.202 171.716 -31.831 170.586 -31.449 169.422 C-31.075 168.263 -30.701 167.103 -30.316 165.909 C-29.113 162.187 -27.901 158.468 -26.688 154.75 C-25.88 152.257 -25.074 149.763 -24.268 147.27 C-21.539 138.837 -18.809 130.406 -16 122 C-17.302 122.153 -18.604 122.307 -19.945 122.465 C-21.672 122.624 -23.398 122.782 -25.125 122.938 C-25.981 123.044 -26.837 123.15 -27.719 123.26 C-31.288 123.548 -33.897 123.627 -37.062 121.829 C-39.045 119.965 -40.053 118.554 -41 116 C-40.919 112.061 -39.392 108.65 -38 105 C-37.476 103.498 -36.956 101.995 -36.441 100.49 C-34.508 94.872 -32.504 89.28 -30.5 83.688 C-28.976 79.417 -27.455 75.146 -25.934 70.875 C-25.538 69.764 -25.142 68.654 -24.734 67.51 C-21.925 59.625 -19.146 51.731 -16.384 43.83 C-15.295 40.714 -14.204 37.598 -13.113 34.482 C-11.841 30.844 -10.569 27.206 -9.302 23.567 C-8.123 20.183 -6.939 16.8 -5.754 13.418 C-5.403 12.405 -5.051 11.391 -4.689 10.347 C-4.363 9.419 -4.037 8.492 -3.701 7.536 C-3.42 6.728 -3.138 5.92 -2.847 5.088 C-2 3 -2 3 0 0 Z " fill="#ffffff" transform="translate(112,7)"/>
<path d="M0 0 C0 2.31 0 4.62 0 7 C-1.98 7.99 -3.96 8.98 -6 10 C-5.835 10.33 -5.835 10.33 -5 12 C-4.552 17.286 -4.728 20.982 -7.699 25.465 C-13.356 32.14 -21.851 32.141 -30 33 C-30.33 33.99 -30.66 34.98 -31 36 C-30.436 36.009 -29.872 36.019 -29.291 36.028 C-26.693 36.083 -24.097 36.166 -21.5 36.25 C-20.613 36.264 -19.726 36.278 -18.812 36.293 C-12.806 36.514 -7.994 37.512 -3 41 C-0.146 44.632 0.209 47.515 0 52 C-0.85 58.146 -3.374 60.957 -8.25 64.75 C-17.336 68.88 -28.504 69.632 -38.062 66.75 C-43.046 64.778 -45.28 62.659 -47.438 57.688 C-48.148 53.031 -47.422 51.012 -45 47 C-43.075 45.343 -41.24 44.244 -39 43 C-39.516 42.484 -40.031 41.969 -40.562 41.438 C-42 39 -42 39 -41.938 35.375 C-41 32 -41 32 -38.938 30.562 C-38.298 30.377 -37.659 30.191 -37 30 C-37 29.34 -37 28.68 -37 28 C-37.299 27.897 -37.299 27.897 -38.812 27.375 C-41.988 25.379 -42.722 23.514 -44 20 C-44.753 14.312 -44.275 9.856 -41 5 C-30.653 -5.067 -13.179 -0.765 0 0 Z " fill="#ffffff" transform="translate(593,116)"/>
<path d="M0 0 C2.971 3.376 3.847 6.704 5 11 C3.973 11.485 2.945 11.969 1.887 12.469 C-7.24 16.854 -16.539 21.334 -23.668 28.73 C-25 30 -25 30 -27 30 C-27.267 30.594 -27.534 31.189 -27.809 31.801 C-29.021 34.039 -30.267 35.401 -32.062 37.188 C-45.91 52.715 -51.865 75.027 -50.875 95.438 C-49.181 119.616 -38.238 140.947 -20 157 C-17.087 159.162 -14.118 161.147 -11 163 C-10.34 161.35 -9.68 159.7 -9 158 C-8.066 161.01 -7.956 161.867 -9 165 C-9.66 165 -10.32 165 -11 165 C-11.144 165.866 -11.289 166.732 -11.438 167.625 C-11.698 169.188 -11.698 169.188 -13 177 C-13.722 176.411 -14.444 175.822 -15.188 175.215 C-17.732 173.211 -20.329 171.39 -23 169.562 C-45.099 153.525 -57.06 131.412 -62.613 105.094 C-65.878 78.974 -59.348 52.369 -43.312 31.402 C-32.143 17.444 -17.122 5.707 0 0 Z " fill="#ffffff" transform="translate(85,34)"/>
<path d="M0 0 C4.62 0 9.24 0 14 0 C14.33 6.93 14.66 13.86 15 21 C17.64 19.68 20.28 18.36 23 17 C28.334 15.852 33.457 16.823 38.15 19.579 C41.768 22.358 43.616 26.649 44.343 31.103 C44.459 33.299 44.451 35.458 44.391 37.656 C44.385 38.444 44.379 39.232 44.373 40.043 C44.351 42.53 44.301 45.014 44.25 47.5 C44.23 49.198 44.212 50.896 44.195 52.594 C44.151 56.73 44.083 60.865 44 65 C39.71 65 35.42 65 31 65 C30.976 63.946 30.976 63.946 30.852 58.613 C30.797 56.561 30.74 54.509 30.683 52.457 C30.644 51.036 30.61 49.616 30.578 48.195 C30.532 46.146 30.474 44.099 30.414 42.051 C30.398 41.435 30.398 41.435 30.319 38.322 C30.014 35.146 29.356 32.866 28 30 C21.748 28.798 21.748 28.798 18.688 29.625 C16.374 31.51 15.919 33.162 15 36 C14.681 39.23 14.681 39.23 14.586 42.832 C14.547 44.124 14.509 45.417 14.469 46.748 C14.437 48.103 14.406 49.458 14.375 50.812 C14.337 52.187 14.298 53.561 14.258 54.936 C14.164 58.29 14.081 61.645 14 65 C9.38 65 4.76 65 0 65 C0 43.55 0 22.1 0 0 Z " fill="#ffffff" transform="translate(405,98)"/>
<path d="M0 0 C4.105 4.105 5.88 7.995 6.227 13.781 C6.227 15.235 6.216 16.69 6.195 18.145 C6.192 18.914 6.19 19.684 6.187 20.477 C6.176 22.922 6.15 25.367 6.125 27.812 C6.115 29.476 6.106 31.139 6.098 32.803 C6.076 36.869 6.041 40.934 6 45 C4.397 45.108 2.793 45.186 1.188 45.25 C0.294 45.296 -0.599 45.343 -1.52 45.391 C-4 45 -4 45 -5.824 42.984 C-6.212 42.33 -6.6 41.675 -7 41 C-7.743 41.639 -8.485 42.279 -9.25 42.938 C-14.482 46.862 -20.654 46.671 -27 46 C-30.918 44.041 -33.938 41.907 -36 38 C-37.192 32.409 -37.332 28.374 -35 23 C-29.975 17.741 -25.485 16.111 -18.441 15.887 C-14.958 15.876 -11.482 15.913 -8 16 C-8.66 13.69 -9.32 11.38 -10 9 C-16.35 7.589 -21.697 8.621 -28 10 C-32 3.25 -32 3.25 -32 1 C-21.559 -3.687 -10.476 -5.524 0 0 Z " fill="#ffffff" transform="translate(495,118)"/>
<path d="M0 0 C6.734 6.887 5.75 12.837 5.75 22.812 C-4.15 22.812 -14.05 22.812 -24.25 22.812 C-21.25 29.812 -21.25 29.812 -19.062 31.75 C-11.962 34.433 -4.438 32.292 2.75 30.812 C2.75 34.113 2.75 37.412 2.75 40.812 C-2.522 43.411 -6.702 44.365 -12.562 44.312 C-13.307 44.307 -14.052 44.301 -14.819 44.295 C-22 44.063 -27.662 42.332 -32.891 37.203 C-37.789 31.067 -38.967 23.475 -38.25 15.812 C-37.293 9.578 -35.434 3.348 -30.352 -0.699 C-20.218 -7.273 -10.025 -6.747 0 0 Z " fill="#ffffff" transform="translate(635.25,120.1875)"/>
<path d="M0 0 C4.051 3.046 5.844 6.117 7.199 10.934 C7.199 15.224 7.199 19.514 7.199 23.934 C-2.701 23.934 -12.601 23.934 -22.801 23.934 C-18.801 31.934 -18.801 31.934 -15.801 33.934 C-8.656 34.742 -1.734 33.618 5.199 31.934 C5.487 34.984 5.637 37.893 5.199 40.934 C-0.29 45.813 -7.973 45.428 -14.957 45.277 C-21.758 44.669 -27.184 42.053 -31.801 36.996 C-36.525 29.762 -36.54 22.333 -35.801 13.934 C-34.217 7.122 -31.712 2.685 -25.801 -1.066 C-17.074 -5.439 -8.421 -4.987 0 0 Z " fill="#59FDB2" transform="translate(333.80078125,119.06640625)"/>
<path d="M0 0 C1.053 2.379 1.099 3.621 0.441 6.141 C0.296 6.489 0.296 6.489 -0.438 8.25 C-0.725 8.956 -1.012 9.663 -1.309 10.391 C-1.537 10.922 -1.765 11.453 -2 12 C-4.885 11.475 -7.527 10.821 -10.312 9.875 C-15.637 8.611 -19.661 9.065 -24.812 11.125 C-29.064 14.769 -30.074 19.411 -30.812 24.75 C-31.308 31.514 -30.646 38.12 -27.25 44.062 C-23.773 47.057 -21.04 48.059 -16.414 47.926 C-13.595 47.69 -10.804 47.373 -8 47 C-7.252 46.902 -6.505 46.804 -5.734 46.703 C-4.154 46.485 -2.576 46.245 -1 46 C-1 49.63 -1 53.26 -1 57 C-9.336 61.168 -18.978 61.242 -28.012 59.379 C-34.976 56.979 -39.733 52.468 -43.059 45.914 C-47.274 35.385 -47.453 23.121 -43 12.648 C-39.374 5.515 -34.294 0.022 -26.496 -2.531 C-18.534 -4.027 -7.064 -4.805 0 0 Z " fill="#ffffff" transform="translate(395,104)"/>
<path d="M0 0 C0.551 0.006 0.551 0.006 3.34 0.035 C3.892 0.04 3.892 0.04 6.688 0.062 C7.542 0.074 8.397 0.086 9.277 0.098 C8.697 4.06 7.858 7.682 6.527 11.457 C6.171 12.476 5.815 13.496 5.448 14.546 C5.254 15.091 5.254 15.091 4.277 17.848 C3.453 20.202 2.629 22.556 1.805 24.91 C1.383 26.109 0.961 27.308 0.527 28.543 C-1.382 33.973 -3.274 39.409 -5.16 44.848 C-5.525 45.897 -5.889 46.946 -6.264 48.026 C-8.339 54.022 -10.375 60.029 -12.371 66.051 C-12.594 66.722 -12.816 67.393 -13.046 68.085 C-14.127 71.346 -15.203 74.609 -16.273 77.874 C-18.299 84.013 -20.431 90.057 -22.885 96.038 C-23.847 98.404 -24.689 100.793 -25.473 103.223 C-25.885 104.501 -26.298 105.78 -26.723 107.098 C-30.683 107.098 -34.643 107.098 -38.723 107.098 C-39.003 102.525 -38.621 99.373 -36.645 95.242 C-35.44 92.441 -34.598 89.58 -33.723 86.66 C-31.996 80.93 -30.082 75.373 -27.789 69.848 C-25.451 64.171 -23.551 58.466 -21.848 52.566 C-20.937 49.758 -19.933 47.085 -18.82 44.355 C-16.698 39.132 -14.904 33.832 -13.16 28.473 C-11.14 22.292 -9.027 16.179 -6.723 10.098 C-5.915 7.699 -5.14 5.294 -4.371 2.883 C-3.339 0.042 -3.166 0.114 0 0 Z " fill="#B8F8D0" transform="translate(116.72265625,10.90234375)"/>
<path d="M0 0 C4.29 0 8.58 0 13 0 C13 16.5 13 33 13 50 C21.25 50 29.5 50 38 50 C38 53.63 38 57.26 38 61 C25.46 61 12.92 61 0 61 C0 40.87 0 20.74 0 0 Z " fill="#56FDB1" transform="translate(254,102)"/>
<path d="M0 0 C0.99 0.33 1.98 0.66 3 1 C1.442 9.44 -1.004 17.837 -4.156 25.82 C-5.316 28.816 -6.369 31.846 -7.438 34.875 C-8.872 38.918 -10.348 42.916 -12 46.875 C-13.772 51.198 -15.145 55.596 -16.5 60.062 C-18.065 65.219 -19.812 70.145 -22.105 75.023 C-24.256 79.775 -25.644 84.827 -27.156 89.809 C-27.367 90.498 -27.578 91.186 -27.795 91.896 C-28.21 93.255 -28.62 94.615 -29.023 95.977 C-30.641 101.284 -32.7 105.824 -35 111 C-26.09 111 -17.18 111 -8 111 C-11.359 122.197 -11.359 122.197 -12.867 127.066 C-19.225 147.636 -19.225 147.636 -21.812 156.375 C-22.011 157.044 -22.209 157.714 -22.413 158.403 C-23.877 163.421 -25.117 168.475 -26.227 173.582 C-27.068 176.213 -28.229 177.901 -30 180 C-30.33 179.34 -30.66 178.68 -31 178 C-31.33 178.66 -31.33 178.66 -33 182 C-34.406 179.187 -33.546 177.967 -32.585 175.003 C-32.251 173.961 -31.917 172.92 -31.573 171.847 C-31.202 170.716 -30.831 169.586 -30.449 168.422 C-30.075 167.263 -29.701 166.103 -29.316 164.909 C-28.113 161.187 -26.901 157.468 -25.688 153.75 C-24.88 151.257 -24.074 148.763 -23.268 146.27 C-20.539 137.837 -17.809 129.406 -15 121 C-16.302 121.153 -17.604 121.307 -18.945 121.465 C-20.672 121.624 -22.398 121.782 -24.125 121.938 C-24.981 122.044 -25.837 122.15 -26.719 122.26 C-30.288 122.548 -32.897 122.627 -36.062 120.829 C-38.045 118.965 -39.053 117.554 -40 115 C-39.919 111.061 -38.392 107.65 -37 104 C-36.476 102.498 -35.956 100.995 -35.441 99.49 C-33.508 93.872 -31.504 88.281 -29.5 82.688 C-27.977 78.419 -26.458 74.149 -24.938 69.879 C-24.542 68.769 -24.146 67.658 -23.738 66.514 C-20.7 57.985 -17.687 49.446 -14.688 40.902 C-14.252 39.664 -13.817 38.425 -13.369 37.149 C-11.654 32.264 -9.939 27.378 -8.226 22.492 C-7.037 19.101 -5.847 15.711 -4.656 12.32 C-4.3 11.302 -3.943 10.283 -3.576 9.234 C-3.25 8.306 -2.924 7.378 -2.588 6.422 C-2.304 5.612 -2.02 4.802 -1.727 3.968 C-1 2 -1 2 0 0 Z " fill="#ffffff" transform="translate(111,8)"/>
<path d="M0 0 C0.629 0.01 0.629 0.01 3.812 0.062 C3.839 1.854 3.859 3.646 3.875 5.438 C3.887 6.435 3.898 7.433 3.91 8.461 C3.812 11.062 3.812 11.062 2.812 13.062 C0.887 13.406 0.887 13.406 -1.5 13.562 C-4.879 13.786 -7.298 14.239 -10.188 16.062 C-12.577 19.647 -12.49 21.435 -12.602 25.699 C-12.621 26.349 -12.621 26.349 -12.719 29.635 C-12.75 31.007 -12.781 32.378 -12.812 33.75 C-12.851 35.133 -12.89 36.517 -12.93 37.9 C-13.024 41.288 -13.107 44.675 -13.188 48.062 C-17.808 48.062 -22.428 48.062 -27.188 48.062 C-27.188 32.553 -27.188 17.042 -27.188 1.062 C-23.558 1.062 -19.928 1.062 -16.188 1.062 C-15.528 3.043 -14.867 5.022 -14.188 7.062 C-13.717 6.641 -13.246 6.219 -12.762 5.785 C-12.139 5.237 -11.516 4.689 -10.875 4.125 C-10.26 3.58 -9.645 3.034 -9.012 2.473 C-6.089 0.213 -3.567 -0.058 0 0 Z " fill="#ffffff" transform="translate(540.1875,114.9375)"/>
<path d="M0 0 C3.63 0 7.26 0 11 0 C10.187 4.063 9.298 6.927 7.656 10.645 C7.16 11.778 6.663 12.912 6.151 14.08 C5.883 14.686 5.614 15.293 5.338 15.918 C3.877 19.22 2.434 22.53 0.988 25.84 C0.676 26.553 0.364 27.267 0.043 28.002 C-4.146 37.596 -8.225 47.237 -12.312 56.875 C-13.079 58.682 -13.846 60.489 -14.613 62.296 C-16.41 66.53 -18.205 70.765 -20 75 C-20.99 75 -21.98 75 -23 75 C-22.017 63.205 -18.512 52.059 -15.093 40.772 C-14.498 38.805 -13.907 36.837 -13.316 34.869 C-11.313 28.21 -9.244 21.582 -7 15 C-6.01 15 -5.02 15 -4 15 C-3.879 14.336 -3.758 13.672 -3.633 12.988 C-3.465 12.105 -3.298 11.222 -3.125 10.312 C-2.963 9.442 -2.8 8.572 -2.633 7.676 C-2 5 -2 5 0 0 Z " fill="#B4F7CE" transform="translate(105,118)"/>
<path d="M0 0 C0.99 0.33 1.98 0.66 3 1 C1.442 9.44 -1.004 17.837 -4.156 25.82 C-5.316 28.816 -6.369 31.846 -7.438 34.875 C-8.872 38.918 -10.348 42.916 -12 46.875 C-13.772 51.198 -15.145 55.596 -16.5 60.062 C-18.065 65.219 -19.812 70.145 -22.105 75.023 C-23.715 78.579 -24.837 82.279 -26 86 C-26.432 87.375 -26.865 88.75 -27.297 90.125 C-28.538 94.081 -29.771 98.04 -31 102 C-31.66 101.34 -32.32 100.68 -33 100 C-33.33 100.165 -33.33 100.165 -35 101 C-33.017 93.321 -30.662 85.85 -28.008 78.379 C-27.625 77.292 -27.242 76.205 -26.848 75.085 C-25.611 71.576 -24.368 68.069 -23.125 64.562 C-22.271 62.144 -21.417 59.726 -20.563 57.308 C-13.8 38.172 -6.948 19.069 0 0 Z " fill="#ffffff" transform="translate(111,8)"/>
<path d="M0 0 C0.839 0.001 1.677 0.001 2.541 0.002 C2.977 0.01 2.977 0.01 5.184 0.051 C6.06 0.048 6.935 0.044 7.838 0.041 C14.354 0.096 14.354 0.096 16.621 2.363 C16.684 5.301 16.684 5.301 15.621 8.363 C9.979 12.125 3.236 12.315 -3.379 11.363 C-5.715 9.996 -5.715 9.996 -7.379 8.363 C-7.816 5.863 -7.816 5.863 -7.379 3.363 C-5.145 0.453 -3.611 -0.014 0 0 Z " fill="#ffffff" transform="translate(564.37890625,163.63671875)"/>
<path d="M0 0 C0.623 0.005 0.623 0.005 3.773 0.027 C4.244 0.033 4.244 0.033 6.625 0.062 C6.625 1.053 6.625 2.042 6.625 3.062 C7.285 3.062 7.945 3.062 8.625 3.062 C6.892 9.826 4.881 16.479 2.75 23.125 C0.432 30.359 -1.684 37.626 -3.68 44.955 C-5.075 50.057 -6.619 55.071 -8.375 60.062 C-9.035 59.403 -9.695 58.743 -10.375 58.062 C-11.035 59.382 -11.695 60.702 -12.375 62.062 C-13.781 59.25 -12.921 58.03 -11.96 55.065 C-11.626 54.024 -11.292 52.982 -10.948 51.909 C-10.577 50.779 -10.206 49.649 -9.824 48.484 C-9.637 47.905 -9.637 47.905 -8.691 44.971 C-7.488 41.249 -6.276 37.531 -5.062 33.812 C-4.255 31.319 -3.449 28.826 -2.643 26.332 C0.086 17.9 2.822 9.471 5.625 1.062 C2.49 1.227 2.49 1.227 -13.375 2.062 C-13.375 1.732 -13.375 1.403 -13.375 1.062 C-8.857 0.18 -4.6 -0.043 0 0 Z " fill="#ffffff" transform="translate(90.375,127.9375)"/>
<path d="M0 0 C2.16 1.215 2.16 1.215 4 3 C5.02 7.491 4.752 11.706 2.438 15.688 C-1.068 17.575 -3.234 17.046 -7 16 C-9.146 12.782 -9.296 11.732 -9.312 8 C-9.329 7.134 -9.346 6.268 -9.363 5.375 C-9 3 -9 3 -7.664 1.211 C-5.072 -0.675 -3.113 -0.381 0 0 Z " fill="#ffffff" transform="translate(571,123)"/>
<path d="M0 0 C0.436 4.36 0.239 6.577 -1.938 10.438 C-5.61 13.51 -7.395 13.592 -12.012 13.406 C-14 13 -14 13 -16 11 C-16.476 7.351 -16.501 5.662 -14.25 2.688 C-9.778 -0.667 -5.408 -0.09 0 0 Z " fill="#ffffff" transform="translate(488,141)"/>
<path d="M0 0 C0.33 0 0.66 0 1 0 C0.425 7.761 -1.957 14.871 -4.312 22.25 C-4.704 23.497 -5.095 24.743 -5.498 26.027 C-7.647 32.849 -9.866 39.642 -12.192 46.405 C-12.976 48.924 -13.533 51.405 -14 54 C-14.66 53.34 -15.32 52.68 -16 52 C-16.66 53.32 -17.32 54.64 -18 56 C-19.547 52.906 -18.19 50.906 -17.129 47.68 C-16.928 47.061 -16.727 46.442 -16.519 45.805 C-15.874 43.826 -15.218 41.851 -14.562 39.875 C-14.124 38.535 -13.686 37.196 -13.248 35.855 C-12.172 32.568 -11.089 29.283 -10 26 C-9.34 26 -8.68 26 -8 26 C-8.021 25.567 -8.021 25.567 -8.125 23.375 C-7.995 19.876 -7.24 17.254 -6 14 C-5.34 14 -4.68 14 -4 14 C-3.963 13.408 -3.925 12.817 -3.887 12.207 C-3.489 7.43 -3.029 3.912 0 0 Z " fill="#ffffff" transform="translate(80,185)"/>
<path d="M0 0 C26.73 0 53.46 0 81 0 C80 2 80 2 78.402 2.624 C75.117 3.138 71.883 3.083 68.569 3.022 C68.198 3.017 68.198 3.017 66.321 2.993 C63.876 2.96 61.43 2.919 58.984 2.879 C57.286 2.855 55.588 2.831 53.89 2.807 C49.425 2.745 44.96 2.676 40.495 2.605 C35.937 2.534 31.378 2.47 26.82 2.404 C17.88 2.275 8.94 2.14 0 2 C0 1.34 0 0.68 0 0 Z " fill="#ffffff" transform="translate(112,8)"/>
<path d="M0 0 C2.97 0 5.94 0 9 0 C8.67 0.66 8.34 1.32 8 2 C6.02 2 4.04 2 2 2 C2 15.86 2 29.72 2 44 C4.97 44 7.94 44 11 44 C11 35.42 11 26.84 11 18 C11.33 18 11.66 18 12 18 C12 27.24 12 36.48 12 46 C8.04 46 4.08 46 0 46 C0 30.82 0 15.64 0 0 Z " fill="#ffffff" transform="translate(514,117)"/>
<path d="M0 0 C3.418 0.792 4.969 2.702 6.973 5.457 C6.973 6.777 6.973 8.097 6.973 9.457 C1.363 9.457 -4.247 9.457 -10.027 9.457 C-10.027 4.457 -10.027 4.457 -8.527 2.145 C-5.654 0.205 -3.46 -0.175 0 0 Z " fill="#ffffff" transform="translate(322.02734375,124.54296875)"/>
<path d="M0 0 C0.99 0.33 1.98 0.66 3 1 C1.709 3.767 0.294 6.05 -1.652 8.398 C-1.914 8.717 -1.914 8.717 -3.241 10.332 C-3.801 11.006 -4.361 11.68 -4.938 12.375 C-9.917 18.423 -14.809 24.525 -19.572 30.746 C-22.784 34.892 -22.784 34.892 -25 36 C-24.34 33.03 -23.68 30.06 -23 27 C-22.01 27 -21.02 27 -20 27 C-18.055 24.613 -18.055 24.613 -15.875 21.312 C-15.08 20.126 -14.284 18.94 -13.488 17.754 C-13.08 17.138 -12.673 16.522 -12.252 15.887 C-10.218 12.822 -8.143 9.784 -6.062 6.75 C-5.332 5.672 -4.601 4.595 -3.848 3.484 C-2 1 -2 1 0 0 Z " fill="#74DC8E" transform="translate(91,201)"/>
<path d="M0 0 C2.5 1.688 2.5 1.688 4 4 C4 5.65 4 7.3 4 9 C-1.28 9 -6.56 9 -12 9 C-12 3 -12 3 -10.5 1.125 C-6.949 -0.473 -3.829 -0.706 0 0 Z " fill="#ffffff" transform="translate(624,125)"/>
<path d="M0 0 C2 2 2 2 2.375 4.812 C2.214 10.759 -0.126 16.418 -2 22 C-2.308 22.937 -2.616 23.874 -2.934 24.84 C-3.613 26.896 -4.305 28.949 -5 31 C-5.66 30.34 -6.32 29.68 -7 29 C-7.66 30.32 -8.32 31.64 -9 33 C-10.352 30.296 -9.481 28.811 -8.589 26.047 C-8.365 25.379 -8.141 24.711 -7.91 24.023 C-7.687 23.338 -7.463 22.653 -7.233 21.947 C-6.517 19.754 -5.79 17.565 -5.062 15.375 C-4.575 13.891 -4.089 12.406 -3.604 10.922 C-2.41 7.279 -1.207 3.639 0 0 Z " fill="#ffffff" transform="translate(87,157)"/>
<path d="M0 0 C1.258 3.894 0.416 6.252 -0.965 10.074 C-2.309 13.873 -3.496 17.714 -4.688 21.562 C-5.129 22.98 -5.57 24.398 -6.012 25.816 C-6.338 26.867 -6.664 27.918 -7 29 C-7.66 28.34 -8.32 27.68 -9 27 C-9.66 27.33 -10.32 27.66 -11 28 C-8.608 18.122 -5.414 8.657 0 0 Z " fill="#ffffff" transform="translate(87,81)"/>
<path d="M0 0 C0.33 0.99 0.66 1.98 1 3 C1.701 2.929 2.402 2.857 3.124 2.783 C11.185 2.029 19.158 1.88 27.25 1.938 C27.867 1.94 27.867 1.94 30.988 1.951 C33.992 1.963 36.996 1.979 40 2 C39.67 2.66 39.34 3.32 39 4 C37.185 3.835 37.185 3.835 28 3 C27.795 3.915 27.59 4.83 27.379 5.773 C27.109 6.962 26.84 8.15 26.562 9.375 C26.296 10.558 26.029 11.742 25.754 12.961 C25 16 25 16 24 18 C23.34 18 22.68 18 22 18 C22.562 12.493 23.711 9.34 26 4 C17.09 4 8.18 4 -1 4 C-0.67 2.68 -0.34 1.36 0 0 Z " fill="#8CF1BA" transform="translate(77,115)"/>
<path d="M0 0 C0.33 0 0.66 0 1 0 C1 9.24 1 18.48 1 28 C-2.96 28 -6.92 28 -11 28 C-11 27.34 -11 26.68 -11 26 C-7.7 26 -4.4 26 -1 26 C-1.005 25.283 -1.01 24.567 -1.016 23.829 C-1.037 20.594 -1.05 17.36 -1.062 14.125 C-1.067 13.561 -1.067 13.561 -1.088 10.707 C-1.091 9.631 -1.094 8.554 -1.098 7.445 C-1.103 6.45 -1.108 5.455 -1.114 4.43 C-1 2 -1 2 0 0 Z " fill="#ffffff" transform="translate(417,135)"/>
<path d="M0 0 C0.33 0 0.66 0 1 0 C0.437 6.21 -1.002 11.628 -3.062 17.5 C-3.344 18.322 -3.626 19.145 -3.916 19.992 C-4.604 21.997 -5.301 23.999 -6 26 C-6.66 26 -7.32 26 -8 26 C-8.213 21.532 -7.591 18.177 -6 14 C-5.34 14 -4.68 14 -4 14 C-3.963 13.408 -3.925 12.817 -3.887 12.207 C-3.489 7.43 -3.029 3.912 0 0 Z " fill="#ffffff" transform="translate(80,185)"/>
<path d="M0 0 C0.99 0.33 1.98 0.66 3 1 C2.239 5.189 1.122 9.225 -0.062 13.312 C-0.425 14.567 -0.787 15.821 -1.16 17.113 C-1.437 18.066 -1.714 19.019 -2 20 C-2.66 19.34 -3.32 18.68 -4 18 C-4.99 18.99 -5.98 19.98 -7 21 C-4.962 13.882 -2.597 6.933 0 0 Z " fill="#ffffff" transform="translate(111,8)"/>
<path d="M0 0 C2.737 1.004 3.834 1.729 5.375 4.25 C6.171 7.751 5.366 9.736 4 13 C1.376 10.626 -0.446 8.186 -2 5 C-1.755 2.795 -1.576 1.576 0 0 Z " fill="#ffffff" transform="translate(192,54)"/>
<path d="M0 0 C0.33 0 0.66 0 1 0 C1.33 1.65 1.66 3.3 2 5 C2.99 4.67 3.98 4.34 5 4 C3.514 8.593 1.15 11.436 -2 15 C-3.315 11.341 -2.655 8.92 -1.562 5.25 C-1.275 4.265 -0.988 3.28 -0.691 2.266 C-0.463 1.518 -0.235 0.77 0 0 Z " fill="#70F0AD" transform="translate(72,215)"/>
<path d="M0 0 C0.878 3.097 0.994 4.906 0 8 C0.66 8 1.32 8 2 8 C1 10 1 10 -1 11 C-3.442 14.527 -3.161 17.826 -3 22 C-3.66 22.33 -4.32 22.66 -5 23 C-6.604 17.263 -5.127 13.456 -3.062 8.125 C-2.772 7.341 -2.481 6.558 -2.182 5.75 C-1.467 3.829 -0.735 1.914 0 0 Z " fill="#83E3AF" transform="translate(82,185)"/>
<path d="M0 0 C0.33 1.32 0.66 2.64 1 4 C1.66 4 2.32 4 3 4 C2.01 7.63 1.02 11.26 0 15 C-0.66 14.34 -1.32 13.68 -2 13 C-2.33 13.165 -2.33 13.165 -4 14 C-3.522 12.229 -3.042 10.458 -2.562 8.688 C-2.296 7.701 -2.029 6.715 -1.754 5.699 C-1.219 3.785 -0.629 1.886 0 0 Z " fill="#ffffff" transform="translate(98,44)"/>
<path d="M0 0 C2.422 3.42 1.999 6.155 1.484 10.098 C1 12 1 12 -1 15 C-1.33 14.34 -1.66 13.68 -2 13 C-2.33 13.165 -2.33 13.165 -4 14 C-3.522 12.229 -3.042 10.458 -2.562 8.688 C-2.296 7.701 -2.029 6.715 -1.754 5.699 C-1.219 3.785 -0.629 1.886 0 0 Z " fill="#ffffff" transform="translate(80,95)"/>
</svg>
